<svg width="18" height="18" viewBox="0 0 18 18" fill="none" xmlns="http://www.w3.org/2000/svg">
<path fill-rule="evenodd" clip-rule="evenodd" d="M8.85718 1.65474C4.87994 1.65474 1.65477 4.87991 1.65477 8.85716C1.65477 12.8344 4.87913 16.0596 8.85718 16.0596C12.8344 16.0596 16.0596 12.8344 16.0596 8.85716C16.0596 4.87911 12.8345 1.65474 8.85718 1.65474ZM0.345238 8.85716C0.345238 4.15668 4.1567 0.345215 8.85718 0.345215C13.5576 0.345215 17.3691 4.15578 17.3691 8.85716C17.3691 13.5576 13.5577 17.3691 8.85718 17.3691C4.15581 17.3691 0.345238 13.5576 0.345238 8.85716Z" fill="#4CAF50"/>
<path fill-rule="evenodd" clip-rule="evenodd" d="M11.1555 8.86812C11.1555 8.28953 11.6246 7.8205 12.2032 7.8205H12.2108C12.7894 7.8205 13.2584 8.28953 13.2584 8.86812C13.2584 9.44671 12.7894 9.91574 12.2108 9.91574H12.2032C11.6246 9.91574 11.1555 9.44671 11.1555 8.86812Z" fill="#4CAF50"/>
<path fill-rule="evenodd" clip-rule="evenodd" d="M7.75035 8.86812C7.75035 8.28953 8.21939 7.8205 8.79797 7.8205H8.80562C9.38421 7.8205 9.85324 8.28953 9.85324 8.86812C9.85324 9.44671 9.38421 9.91574 8.80562 9.91574H8.79797C8.21939 9.91574 7.75035 9.44671 7.75035 8.86812Z" fill="#4CAF50"/>
<path fill-rule="evenodd" clip-rule="evenodd" d="M4.34491 8.86812C4.34491 8.28953 4.81395 7.8205 5.39253 7.8205H5.40018C5.97876 7.8205 6.4478 8.28953 6.4478 8.86812C6.4478 9.44671 5.97876 9.91574 5.40018 9.91574H5.39253C4.81395 9.91574 4.34491 9.44671 4.34491 8.86812Z" fill="#4CAF50"/>
</svg>
